<mxfile host="Electron" agent="Mozilla/5.0 (Windows NT 10.0; Win64; x64) AppleWebKit/537.36 (KHTML, like Gecko) draw.io/24.7.17 Chrome/128.0.6613.36 Electron/32.0.1 Safari/537.36" version="24.7.17">
  <diagram name="Page-1" id="6-VY2Kr8mh5ephC-ggrv">
    <mxGraphModel dx="1328" dy="279" grid="1" gridSize="10" guides="1" tooltips="1" connect="1" arrows="1" fold="1" page="1" pageScale="1" pageWidth="850" pageHeight="1100" math="0" shadow="0">
      <root>
        <mxCell id="0" />
        <mxCell id="1" parent="0" />
        <mxCell id="QEd4yvdWXki_lCjb84Wy-9" value="User" style="swimlane;fontStyle=1;align=center;verticalAlign=top;childLayout=stackLayout;horizontal=1;startSize=26;horizontalStack=0;resizeParent=1;resizeParentMax=0;resizeLast=0;collapsible=1;marginBottom=0;whiteSpace=wrap;html=1;fillColor=#a20025;fontColor=#ffffff;strokeColor=#6F0000;" parent="1" vertex="1">
          <mxGeometry x="1000" y="80" width="183" height="534" as="geometry" />
        </mxCell>
        <mxCell id="24fqjNdx8K8JyZ3R7jgm-30" value="&lt;div&gt;- fullName: String&lt;br&gt;&lt;/div&gt;" style="text;strokeColor=none;fillColor=none;align=left;verticalAlign=top;spacingLeft=4;spacingRight=4;overflow=hidden;rotatable=0;points=[[0,0.5],[1,0.5]];portConstraint=eastwest;whiteSpace=wrap;html=1;" parent="QEd4yvdWXki_lCjb84Wy-9" vertex="1">
          <mxGeometry y="26" width="183" height="26" as="geometry" />
        </mxCell>
        <mxCell id="24fqjNdx8K8JyZ3R7jgm-25" value="&lt;div&gt;- id : String&lt;br&gt;&lt;/div&gt;" style="text;strokeColor=none;fillColor=none;align=left;verticalAlign=top;spacingLeft=4;spacingRight=4;overflow=hidden;rotatable=0;points=[[0,0.5],[1,0.5]];portConstraint=eastwest;whiteSpace=wrap;html=1;" parent="QEd4yvdWXki_lCjb84Wy-9" vertex="1">
          <mxGeometry y="52" width="183" height="26" as="geometry" />
        </mxCell>
        <mxCell id="24fqjNdx8K8JyZ3R7jgm-24" value="&lt;div&gt;- -----&lt;br&gt;&lt;/div&gt;" style="text;strokeColor=none;fillColor=none;align=left;verticalAlign=top;spacingLeft=4;spacingRight=4;overflow=hidden;rotatable=0;points=[[0,0.5],[1,0.5]];portConstraint=eastwest;whiteSpace=wrap;html=1;" parent="QEd4yvdWXki_lCjb84Wy-9" vertex="1">
          <mxGeometry y="78" width="183" height="26" as="geometry" />
        </mxCell>
        <mxCell id="24fqjNdx8K8JyZ3R7jgm-46" value="- requests : List &amp;lt;Request&amp;gt;" style="text;strokeColor=none;fillColor=none;align=left;verticalAlign=top;spacingLeft=4;spacingRight=4;overflow=hidden;rotatable=0;points=[[0,0.5],[1,0.5]];portConstraint=eastwest;whiteSpace=wrap;html=1;" parent="QEd4yvdWXki_lCjb84Wy-9" vertex="1">
          <mxGeometry y="104" width="183" height="26" as="geometry" />
        </mxCell>
        <mxCell id="24fqjNdx8K8JyZ3R7jgm-47" value="- reports : List &amp;lt;Report&amp;gt;" style="text;strokeColor=none;fillColor=none;align=left;verticalAlign=top;spacingLeft=4;spacingRight=4;overflow=hidden;rotatable=0;points=[[0,0.5],[1,0.5]];portConstraint=eastwest;whiteSpace=wrap;html=1;" parent="QEd4yvdWXki_lCjb84Wy-9" vertex="1">
          <mxGeometry y="130" width="183" height="26" as="geometry" />
        </mxCell>
        <mxCell id="24fqjNdx8K8JyZ3R7jgm-20" value="&lt;div&gt;- vehicles : List &amp;lt;Vehicles&amp;gt;&lt;br&gt;&lt;/div&gt;" style="text;strokeColor=none;fillColor=none;align=left;verticalAlign=top;spacingLeft=4;spacingRight=4;overflow=hidden;rotatable=0;points=[[0,0.5],[1,0.5]];portConstraint=eastwest;whiteSpace=wrap;html=1;" parent="QEd4yvdWXki_lCjb84Wy-9" vertex="1">
          <mxGeometry y="156" width="183" height="26" as="geometry" />
        </mxCell>
        <mxCell id="24fqjNdx8K8JyZ3R7jgm-21" value="&lt;div&gt;- account : Account&lt;br&gt;&lt;/div&gt;" style="text;strokeColor=none;fillColor=none;align=left;verticalAlign=top;spacingLeft=4;spacingRight=4;overflow=hidden;rotatable=0;points=[[0,0.5],[1,0.5]];portConstraint=eastwest;whiteSpace=wrap;html=1;" parent="QEd4yvdWXki_lCjb84Wy-9" vertex="1">
          <mxGeometry y="182" width="183" height="26" as="geometry" />
        </mxCell>
        <mxCell id="QEd4yvdWXki_lCjb84Wy-11" value="" style="line;strokeWidth=1;fillColor=none;align=left;verticalAlign=middle;spacingTop=-1;spacingLeft=3;spacingRight=3;rotatable=0;labelPosition=right;points=[];portConstraint=eastwest;strokeColor=inherit;" parent="QEd4yvdWXki_lCjb84Wy-9" vertex="1">
          <mxGeometry y="208" width="183" height="20" as="geometry" />
        </mxCell>
        <mxCell id="QEd4yvdWXki_lCjb84Wy-12" value="&lt;div&gt;+ Constructor(Account)&lt;br&gt;&lt;/div&gt;" style="text;strokeColor=none;fillColor=none;align=left;verticalAlign=top;spacingLeft=4;spacingRight=4;overflow=hidden;rotatable=0;points=[[0,0.5],[1,0.5]];portConstraint=eastwest;whiteSpace=wrap;html=1;" parent="QEd4yvdWXki_lCjb84Wy-9" vertex="1">
          <mxGeometry y="228" width="183" height="26" as="geometry" />
        </mxCell>
        <mxCell id="QEd4yvdWXki_lCjb84Wy-32" value="&lt;div&gt;+ setter&lt;/div&gt;" style="text;strokeColor=none;fillColor=none;align=left;verticalAlign=top;spacingLeft=4;spacingRight=4;overflow=hidden;rotatable=0;points=[[0,0.5],[1,0.5]];portConstraint=eastwest;whiteSpace=wrap;html=1;" parent="QEd4yvdWXki_lCjb84Wy-9" vertex="1">
          <mxGeometry y="254" width="183" height="26" as="geometry" />
        </mxCell>
        <mxCell id="24fqjNdx8K8JyZ3R7jgm-1" value="+ getter" style="text;strokeColor=none;fillColor=none;align=left;verticalAlign=top;spacingLeft=4;spacingRight=4;overflow=hidden;rotatable=0;points=[[0,0.5],[1,0.5]];portConstraint=eastwest;whiteSpace=wrap;html=1;" parent="QEd4yvdWXki_lCjb84Wy-9" vertex="1">
          <mxGeometry y="280" width="183" height="26" as="geometry" />
        </mxCell>
        <mxCell id="24fqjNdx8K8JyZ3R7jgm-66" value="User&#39;s getter setter được sử dụng khi user&lt;div style=&quot;font-size: 8px;&quot;&gt;chọn tính năng sửa thông tin trên menu.&lt;/div&gt;" style="text;html=1;align=center;verticalAlign=middle;resizable=0;points=[];autosize=1;strokeColor=none;fillColor=none;horizontal=1;textOpacity=60;fontSize=8;" parent="QEd4yvdWXki_lCjb84Wy-9" vertex="1">
          <mxGeometry y="306" width="183" height="30" as="geometry" />
        </mxCell>
        <mxCell id="24fqjNdx8K8JyZ3R7jgm-62" value="&lt;div&gt;+ newRequest()&lt;br&gt;&lt;/div&gt;" style="text;strokeColor=none;fillColor=none;align=left;verticalAlign=top;spacingLeft=4;spacingRight=4;overflow=hidden;rotatable=0;points=[[0,0.5],[1,0.5]];portConstraint=eastwest;whiteSpace=wrap;html=1;" parent="QEd4yvdWXki_lCjb84Wy-9" vertex="1">
          <mxGeometry y="336" width="183" height="26" as="geometry" />
        </mxCell>
        <mxCell id="24fqjNdx8K8JyZ3R7jgm-79" value="New request để khởi tạo req mới, sử dụng&lt;div style=&quot;font-size: 8px;&quot;&gt;một hàm chuyên biệt&amp;nbsp;&lt;span style=&quot;background-color: initial; font-size: 8px;&quot;&gt;để lấy giữ liệu cần&amp;nbsp;&lt;/span&gt;&lt;/div&gt;&lt;div style=&quot;font-size: 8px;&quot;&gt;&lt;span style=&quot;background-color: initial; font-size: 8px;&quot;&gt;thiết,&amp;nbsp;&lt;/span&gt;&lt;span style=&quot;background-color: initial; font-size: 8px;&quot;&gt;sau đó hàm đấy tạo object&amp;nbsp;&lt;/span&gt;&lt;span style=&quot;background-color: initial; font-size: 8px;&quot;&gt;request&lt;/span&gt;&lt;/div&gt;&lt;div style=&quot;font-size: 8px;&quot;&gt;&lt;span style=&quot;background-color: initial; font-size: 8px;&quot;&gt;mới từ&amp;nbsp;&lt;/span&gt;&lt;span style=&quot;background-color: initial; font-size: 8px;&quot;&gt;cái class request.&amp;nbsp;&lt;/span&gt;&lt;span style=&quot;background-color: initial; font-size: 8px;&quot;&gt;Object này&amp;nbsp;&lt;/span&gt;&lt;span style=&quot;background-color: initial; font-size: 8px;&quot;&gt;sau&amp;nbsp;&lt;/span&gt;&lt;/div&gt;&lt;div style=&quot;font-size: 8px;&quot;&gt;&lt;span style=&quot;background-color: initial; font-size: 8px;&quot;&gt;đó được đẩy vào database + list của user&amp;nbsp;&lt;/span&gt;&lt;/div&gt;&lt;div style=&quot;font-size: 8px;&quot;&gt;&lt;span style=&quot;background-color: initial; font-size: 8px;&quot;&gt;được add phần tử mới, chính cái ptu mới&lt;/span&gt;&lt;/div&gt;&lt;div style=&quot;font-size: 8px;&quot;&gt;&lt;span style=&quot;background-color: initial; font-size: 8px;&quot;&gt;trong list ấy&amp;nbsp;&lt;/span&gt;&lt;span style=&quot;background-color: initial; font-size: 8px;&quot;&gt;reference&amp;nbsp;&lt;/span&gt;&lt;span style=&quot;background-color: initial; font-size: 8px;&quot;&gt;về cái object&amp;nbsp;&lt;/span&gt;&lt;span style=&quot;background-color: initial; font-size: 8px;&quot;&gt;này.&lt;/span&gt;&lt;/div&gt;&lt;div style=&quot;font-size: 8px;&quot;&gt;&lt;span style=&quot;background-color: initial; font-size: 8px;&quot;&gt;Nên lần sau khởi chạy, obj có thể&amp;nbsp;&lt;/span&gt;&lt;span style=&quot;background-color: initial; font-size: 8px;&quot;&gt;được khởi&lt;/span&gt;&lt;/div&gt;&lt;div style=&quot;font-size: 8px;&quot;&gt;&lt;span style=&quot;background-color: initial; font-size: 8px;&quot;&gt;tạo bằng một hàm khác, để hiện thị cho&amp;nbsp;&lt;/span&gt;&lt;span style=&quot;background-color: initial; font-size: 8px;&quot;&gt;user&amp;nbsp;&lt;/span&gt;&lt;/div&gt;&lt;div style=&quot;font-size: 8px;&quot;&gt;&lt;span style=&quot;background-color: initial; font-size: 8px;&quot;&gt;trong trường hợp user chọn view req trên menu,&lt;br&gt;&lt;i&gt;ex: account.currentUser.getReq()&lt;/i&gt;&lt;/span&gt;&lt;/div&gt;" style="text;html=1;align=center;verticalAlign=middle;resizable=0;points=[];autosize=1;strokeColor=none;fillColor=none;horizontal=1;textOpacity=60;fontSize=8;" parent="QEd4yvdWXki_lCjb84Wy-9" vertex="1">
          <mxGeometry y="362" width="183" height="120" as="geometry" />
        </mxCell>
        <mxCell id="24fqjNdx8K8JyZ3R7jgm-63" value="&lt;div&gt;+ getReq()&lt;br&gt;&lt;/div&gt;" style="text;strokeColor=none;fillColor=none;align=left;verticalAlign=top;spacingLeft=4;spacingRight=4;overflow=hidden;rotatable=0;points=[[0,0.5],[1,0.5]];portConstraint=eastwest;whiteSpace=wrap;html=1;" parent="QEd4yvdWXki_lCjb84Wy-9" vertex="1">
          <mxGeometry y="482" width="183" height="26" as="geometry" />
        </mxCell>
        <mxCell id="24fqjNdx8K8JyZ3R7jgm-64" value="&lt;div&gt;+ getRep()&lt;br&gt;&lt;/div&gt;" style="text;strokeColor=none;fillColor=none;align=left;verticalAlign=top;spacingLeft=4;spacingRight=4;overflow=hidden;rotatable=0;points=[[0,0.5],[1,0.5]];portConstraint=eastwest;whiteSpace=wrap;html=1;" parent="QEd4yvdWXki_lCjb84Wy-9" vertex="1">
          <mxGeometry y="508" width="183" height="26" as="geometry" />
        </mxCell>
        <mxCell id="QEd4yvdWXki_lCjb84Wy-13" value="Vehicles" style="swimlane;fontStyle=1;align=center;verticalAlign=top;childLayout=stackLayout;horizontal=1;startSize=26;horizontalStack=0;resizeParent=1;resizeParentMax=0;resizeLast=0;collapsible=1;marginBottom=0;whiteSpace=wrap;html=1;" parent="1" vertex="1">
          <mxGeometry x="1520" y="443" width="160" height="268" as="geometry" />
        </mxCell>
        <mxCell id="24fqjNdx8K8JyZ3R7jgm-74" value="- user : User" style="text;strokeColor=none;fillColor=none;align=left;verticalAlign=top;spacingLeft=4;spacingRight=4;overflow=hidden;rotatable=0;points=[[0,0.5],[1,0.5]];portConstraint=eastwest;whiteSpace=wrap;html=1;" parent="QEd4yvdWXki_lCjb84Wy-13" vertex="1">
          <mxGeometry y="26" width="160" height="26" as="geometry" />
        </mxCell>
        <mxCell id="24fqjNdx8K8JyZ3R7jgm-75" value="-&amp;nbsp;types: String" style="text;strokeColor=none;fillColor=none;align=left;verticalAlign=top;spacingLeft=4;spacingRight=4;overflow=hidden;rotatable=0;points=[[0,0.5],[1,0.5]];portConstraint=eastwest;whiteSpace=wrap;html=1;" parent="QEd4yvdWXki_lCjb84Wy-13" vertex="1">
          <mxGeometry y="52" width="160" height="26" as="geometry" />
        </mxCell>
        <mxCell id="24fqjNdx8K8JyZ3R7jgm-76" value="-&amp;nbsp;vehicleId : String" style="text;strokeColor=none;fillColor=none;align=left;verticalAlign=top;spacingLeft=4;spacingRight=4;overflow=hidden;rotatable=0;points=[[0,0.5],[1,0.5]];portConstraint=eastwest;whiteSpace=wrap;html=1;" parent="QEd4yvdWXki_lCjb84Wy-13" vertex="1">
          <mxGeometry y="78" width="160" height="26" as="geometry" />
        </mxCell>
        <mxCell id="24fqjNdx8K8JyZ3R7jgm-71" value="-&amp;nbsp;plate : String" style="text;strokeColor=none;fillColor=none;align=left;verticalAlign=top;spacingLeft=4;spacingRight=4;overflow=hidden;rotatable=0;points=[[0,0.5],[1,0.5]];portConstraint=eastwest;whiteSpace=wrap;html=1;" parent="QEd4yvdWXki_lCjb84Wy-13" vertex="1">
          <mxGeometry y="104" width="160" height="26" as="geometry" />
        </mxCell>
        <mxCell id="24fqjNdx8K8JyZ3R7jgm-72" value="-&amp;nbsp;Status : ---" style="text;strokeColor=none;fillColor=none;align=left;verticalAlign=top;spacingLeft=4;spacingRight=4;overflow=hidden;rotatable=0;points=[[0,0.5],[1,0.5]];portConstraint=eastwest;whiteSpace=wrap;html=1;" parent="QEd4yvdWXki_lCjb84Wy-13" vertex="1">
          <mxGeometry y="130" width="160" height="26" as="geometry" />
        </mxCell>
        <mxCell id="24fqjNdx8K8JyZ3R7jgm-73" value="-&amp;nbsp;Posistion : ---" style="text;strokeColor=none;fillColor=none;align=left;verticalAlign=top;spacingLeft=4;spacingRight=4;overflow=hidden;rotatable=0;points=[[0,0.5],[1,0.5]];portConstraint=eastwest;whiteSpace=wrap;html=1;" parent="QEd4yvdWXki_lCjb84Wy-13" vertex="1">
          <mxGeometry y="156" width="160" height="26" as="geometry" />
        </mxCell>
        <mxCell id="QEd4yvdWXki_lCjb84Wy-15" value="" style="line;strokeWidth=1;fillColor=none;align=left;verticalAlign=middle;spacingTop=-1;spacingLeft=3;spacingRight=3;rotatable=0;labelPosition=right;points=[];portConstraint=eastwest;strokeColor=inherit;" parent="QEd4yvdWXki_lCjb84Wy-13" vertex="1">
          <mxGeometry y="182" width="160" height="8" as="geometry" />
        </mxCell>
        <mxCell id="QEd4yvdWXki_lCjb84Wy-16" value="+ Constructor(String)" style="text;strokeColor=none;fillColor=none;align=left;verticalAlign=top;spacingLeft=4;spacingRight=4;overflow=hidden;rotatable=0;points=[[0,0.5],[1,0.5]];portConstraint=eastwest;whiteSpace=wrap;html=1;" parent="QEd4yvdWXki_lCjb84Wy-13" vertex="1">
          <mxGeometry y="190" width="160" height="26" as="geometry" />
        </mxCell>
        <mxCell id="QEd4yvdWXki_lCjb84Wy-33" value="+ setter" style="text;strokeColor=none;fillColor=none;align=left;verticalAlign=top;spacingLeft=4;spacingRight=4;overflow=hidden;rotatable=0;points=[[0,0.5],[1,0.5]];portConstraint=eastwest;whiteSpace=wrap;html=1;" parent="QEd4yvdWXki_lCjb84Wy-13" vertex="1">
          <mxGeometry y="216" width="160" height="26" as="geometry" />
        </mxCell>
        <mxCell id="QEd4yvdWXki_lCjb84Wy-34" value="+ setter" style="text;strokeColor=none;fillColor=none;align=left;verticalAlign=top;spacingLeft=4;spacingRight=4;overflow=hidden;rotatable=0;points=[[0,0.5],[1,0.5]];portConstraint=eastwest;whiteSpace=wrap;html=1;" parent="QEd4yvdWXki_lCjb84Wy-13" vertex="1">
          <mxGeometry y="242" width="160" height="26" as="geometry" />
        </mxCell>
        <mxCell id="QEd4yvdWXki_lCjb84Wy-17" value="Account" style="swimlane;fontStyle=1;align=center;verticalAlign=top;childLayout=stackLayout;horizontal=1;startSize=26;horizontalStack=0;resizeParent=1;resizeParentMax=0;resizeLast=0;collapsible=1;marginBottom=0;whiteSpace=wrap;html=1;" parent="1" vertex="1">
          <mxGeometry x="600" y="219" width="160" height="256" as="geometry" />
        </mxCell>
        <mxCell id="24fqjNdx8K8JyZ3R7jgm-29" value="&lt;div&gt;- username: String&lt;br&gt;&lt;/div&gt;" style="text;strokeColor=none;fillColor=none;align=left;verticalAlign=top;spacingLeft=4;spacingRight=4;overflow=hidden;rotatable=0;points=[[0,0.5],[1,0.5]];portConstraint=eastwest;whiteSpace=wrap;html=1;" parent="QEd4yvdWXki_lCjb84Wy-17" vertex="1">
          <mxGeometry y="26" width="160" height="26" as="geometry" />
        </mxCell>
        <mxCell id="24fqjNdx8K8JyZ3R7jgm-26" value="&lt;div&gt;&lt;span style=&quot;background-color: initial;&quot;&gt;- password : String&lt;/span&gt;&lt;br&gt;&lt;/div&gt;" style="text;strokeColor=none;fillColor=none;align=left;verticalAlign=top;spacingLeft=4;spacingRight=4;overflow=hidden;rotatable=0;points=[[0,0.5],[1,0.5]];portConstraint=eastwest;whiteSpace=wrap;html=1;" parent="QEd4yvdWXki_lCjb84Wy-17" vertex="1">
          <mxGeometry y="52" width="160" height="26" as="geometry" />
        </mxCell>
        <mxCell id="24fqjNdx8K8JyZ3R7jgm-28" value="- currentUser : User" style="text;strokeColor=none;fillColor=none;align=left;verticalAlign=top;spacingLeft=4;spacingRight=4;overflow=hidden;rotatable=0;points=[[0,0.5],[1,0.5]];portConstraint=eastwest;whiteSpace=wrap;html=1;" parent="QEd4yvdWXki_lCjb84Wy-17" vertex="1">
          <mxGeometry y="78" width="160" height="26" as="geometry" />
        </mxCell>
        <mxCell id="24fqjNdx8K8JyZ3R7jgm-27" value="- id : String" style="text;strokeColor=none;fillColor=none;align=left;verticalAlign=top;spacingLeft=4;spacingRight=4;overflow=hidden;rotatable=0;points=[[0,0.5],[1,0.5]];portConstraint=eastwest;whiteSpace=wrap;html=1;" parent="QEd4yvdWXki_lCjb84Wy-17" vertex="1">
          <mxGeometry y="104" width="160" height="26" as="geometry" />
        </mxCell>
        <mxCell id="QEd4yvdWXki_lCjb84Wy-19" value="" style="line;strokeWidth=1;fillColor=none;align=left;verticalAlign=middle;spacingTop=-1;spacingLeft=3;spacingRight=3;rotatable=0;labelPosition=right;points=[];portConstraint=eastwest;strokeColor=inherit;" parent="QEd4yvdWXki_lCjb84Wy-17" vertex="1">
          <mxGeometry y="130" width="160" height="8" as="geometry" />
        </mxCell>
        <mxCell id="QEd4yvdWXki_lCjb84Wy-20" value="+ Constructor(String, String)" style="text;strokeColor=none;fillColor=none;align=left;verticalAlign=top;spacingLeft=4;spacingRight=4;overflow=hidden;rotatable=0;points=[[0,0.5],[1,0.5]];portConstraint=eastwest;whiteSpace=wrap;html=1;" parent="QEd4yvdWXki_lCjb84Wy-17" vertex="1">
          <mxGeometry y="138" width="160" height="26" as="geometry" />
        </mxCell>
        <mxCell id="QEd4yvdWXki_lCjb84Wy-39" value="+ setter" style="text;strokeColor=none;fillColor=none;align=left;verticalAlign=top;spacingLeft=4;spacingRight=4;overflow=hidden;rotatable=0;points=[[0,0.5],[1,0.5]];portConstraint=eastwest;whiteSpace=wrap;html=1;" parent="QEd4yvdWXki_lCjb84Wy-17" vertex="1">
          <mxGeometry y="164" width="160" height="26" as="geometry" />
        </mxCell>
        <mxCell id="QEd4yvdWXki_lCjb84Wy-40" value="+ getter" style="text;strokeColor=none;fillColor=none;align=left;verticalAlign=top;spacingLeft=4;spacingRight=4;overflow=hidden;rotatable=0;points=[[0,0.5],[1,0.5]];portConstraint=eastwest;whiteSpace=wrap;html=1;" parent="QEd4yvdWXki_lCjb84Wy-17" vertex="1">
          <mxGeometry y="190" width="160" height="26" as="geometry" />
        </mxCell>
        <mxCell id="24fqjNdx8K8JyZ3R7jgm-50" value="Khởi tạo account bằng input (string&amp;nbsp;&lt;span style=&quot;background-color: initial;&quot;&gt;username&lt;/span&gt;&lt;div&gt;,&amp;nbsp;&lt;span style=&quot;background-color: initial;&quot;&gt;string password) Object account&amp;nbsp;&lt;/span&gt;&lt;span style=&quot;background-color: initial;&quot;&gt;khởi&amp;nbsp;&lt;/span&gt;&lt;/div&gt;&lt;div&gt;&lt;span style=&quot;background-color: initial;&quot;&gt;tạo&amp;nbsp;&lt;/span&gt;&lt;span style=&quot;background-color: initial;&quot;&gt;thành công &amp;lt;=&amp;gt; User được khởi tạo.&lt;/span&gt;&lt;/div&gt;" style="text;html=1;align=center;verticalAlign=middle;resizable=0;points=[];autosize=1;strokeColor=none;fillColor=none;horizontal=1;textOpacity=60;fontSize=8;" parent="QEd4yvdWXki_lCjb84Wy-17" vertex="1">
          <mxGeometry y="216" width="160" height="40" as="geometry" />
        </mxCell>
        <mxCell id="QEd4yvdWXki_lCjb84Wy-35" value="Documents" style="swimlane;fontStyle=1;align=center;verticalAlign=top;childLayout=stackLayout;horizontal=1;startSize=30;horizontalStack=0;resizeParent=1;resizeParentMax=0;resizeLast=0;collapsible=1;marginBottom=0;whiteSpace=wrap;html=1;fillColor=#a20025;fontColor=#ffffff;strokeColor=#6F0000;" parent="1" vertex="1">
          <mxGeometry x="1510" y="850" width="160" height="220" as="geometry" />
        </mxCell>
        <mxCell id="24fqjNdx8K8JyZ3R7jgm-40" value="- user : User" style="text;strokeColor=#6F0000;fillColor=#a20025;align=left;verticalAlign=top;spacingLeft=4;spacingRight=4;overflow=hidden;rotatable=0;points=[[0,0.5],[1,0.5]];portConstraint=eastwest;whiteSpace=wrap;html=1;fontColor=#ffffff;" parent="QEd4yvdWXki_lCjb84Wy-35" vertex="1">
          <mxGeometry y="30" width="160" height="26" as="geometry" />
        </mxCell>
        <mxCell id="24fqjNdx8K8JyZ3R7jgm-37" value="- docId : String" style="text;strokeColor=#6F0000;fillColor=#a20025;align=left;verticalAlign=top;spacingLeft=4;spacingRight=4;overflow=hidden;rotatable=0;points=[[0,0.5],[1,0.5]];portConstraint=eastwest;whiteSpace=wrap;html=1;fontColor=#ffffff;" parent="QEd4yvdWXki_lCjb84Wy-35" vertex="1">
          <mxGeometry y="56" width="160" height="26" as="geometry" />
        </mxCell>
        <mxCell id="24fqjNdx8K8JyZ3R7jgm-39" value="- requests : List &amp;lt;Request&amp;gt;" style="text;strokeColor=#6F0000;fillColor=#a20025;align=left;verticalAlign=top;spacingLeft=4;spacingRight=4;overflow=hidden;rotatable=0;points=[[0,0.5],[1,0.5]];portConstraint=eastwest;whiteSpace=wrap;html=1;fontColor=#ffffff;" parent="QEd4yvdWXki_lCjb84Wy-35" vertex="1">
          <mxGeometry y="82" width="160" height="26" as="geometry" />
        </mxCell>
        <mxCell id="24fqjNdx8K8JyZ3R7jgm-38" value="- Reports : List &amp;lt;Report&amp;gt;" style="text;strokeColor=#6F0000;fillColor=#a20025;align=left;verticalAlign=top;spacingLeft=4;spacingRight=4;overflow=hidden;rotatable=0;points=[[0,0.5],[1,0.5]];portConstraint=eastwest;whiteSpace=wrap;html=1;fontColor=#ffffff;" parent="QEd4yvdWXki_lCjb84Wy-35" vertex="1">
          <mxGeometry y="108" width="160" height="26" as="geometry" />
        </mxCell>
        <mxCell id="QEd4yvdWXki_lCjb84Wy-37" value="" style="line;strokeWidth=1;fillColor=none;align=left;verticalAlign=middle;spacingTop=-1;spacingLeft=3;spacingRight=3;rotatable=0;labelPosition=right;points=[];portConstraint=eastwest;strokeColor=inherit;" parent="QEd4yvdWXki_lCjb84Wy-35" vertex="1">
          <mxGeometry y="134" width="160" height="8" as="geometry" />
        </mxCell>
        <mxCell id="QEd4yvdWXki_lCjb84Wy-38" value="+ Constructor(String)" style="text;strokeColor=#6F0000;fillColor=#a20025;align=left;verticalAlign=top;spacingLeft=4;spacingRight=4;overflow=hidden;rotatable=0;points=[[0,0.5],[1,0.5]];portConstraint=eastwest;whiteSpace=wrap;html=1;fontColor=#ffffff;" parent="QEd4yvdWXki_lCjb84Wy-35" vertex="1">
          <mxGeometry y="142" width="160" height="26" as="geometry" />
        </mxCell>
        <mxCell id="24fqjNdx8K8JyZ3R7jgm-45" value="+ Getter" style="text;strokeColor=#6F0000;fillColor=#a20025;align=left;verticalAlign=top;spacingLeft=4;spacingRight=4;overflow=hidden;rotatable=0;points=[[0,0.5],[1,0.5]];portConstraint=eastwest;whiteSpace=wrap;html=1;fontColor=#ffffff;" parent="QEd4yvdWXki_lCjb84Wy-35" vertex="1">
          <mxGeometry y="168" width="160" height="26" as="geometry" />
        </mxCell>
        <mxCell id="24fqjNdx8K8JyZ3R7jgm-44" value="+ Setter" style="text;strokeColor=#6F0000;fillColor=#a20025;align=left;verticalAlign=top;spacingLeft=4;spacingRight=4;overflow=hidden;rotatable=0;points=[[0,0.5],[1,0.5]];portConstraint=eastwest;whiteSpace=wrap;html=1;fontColor=#ffffff;" parent="QEd4yvdWXki_lCjb84Wy-35" vertex="1">
          <mxGeometry y="194" width="160" height="26" as="geometry" />
        </mxCell>
        <mxCell id="QEd4yvdWXki_lCjb84Wy-41" value="ARequest" style="swimlane;fontStyle=1;align=center;verticalAlign=top;childLayout=stackLayout;horizontal=1;startSize=26;horizontalStack=0;resizeParent=1;resizeParentMax=0;resizeLast=0;collapsible=1;marginBottom=0;whiteSpace=wrap;html=1;fillColor=#a20025;fontColor=#ffffff;strokeColor=#6F0000;" parent="1" vertex="1">
          <mxGeometry x="1220" y="480" width="160" height="138" as="geometry" />
        </mxCell>
        <mxCell id="QEd4yvdWXki_lCjb84Wy-42" value="# -----" style="text;strokeColor=none;fillColor=none;align=left;verticalAlign=top;spacingLeft=4;spacingRight=4;overflow=hidden;rotatable=0;points=[[0,0.5],[1,0.5]];portConstraint=eastwest;whiteSpace=wrap;html=1;" parent="QEd4yvdWXki_lCjb84Wy-41" vertex="1">
          <mxGeometry y="26" width="160" height="26" as="geometry" />
        </mxCell>
        <mxCell id="QEd4yvdWXki_lCjb84Wy-43" value="" style="line;strokeWidth=1;fillColor=none;align=left;verticalAlign=middle;spacingTop=-1;spacingLeft=3;spacingRight=3;rotatable=0;labelPosition=right;points=[];portConstraint=eastwest;strokeColor=inherit;" parent="QEd4yvdWXki_lCjb84Wy-41" vertex="1">
          <mxGeometry y="52" width="160" height="8" as="geometry" />
        </mxCell>
        <mxCell id="24fqjNdx8K8JyZ3R7jgm-34" value="+ Constructor()" style="text;strokeColor=none;fillColor=none;align=left;verticalAlign=top;spacingLeft=4;spacingRight=4;overflow=hidden;rotatable=0;points=[[0,0.5],[1,0.5]];portConstraint=eastwest;whiteSpace=wrap;html=1;" parent="QEd4yvdWXki_lCjb84Wy-41" vertex="1">
          <mxGeometry y="60" width="160" height="26" as="geometry" />
        </mxCell>
        <mxCell id="24fqjNdx8K8JyZ3R7jgm-36" value="+ getter" style="text;strokeColor=none;fillColor=none;align=left;verticalAlign=top;spacingLeft=4;spacingRight=4;overflow=hidden;rotatable=0;points=[[0,0.5],[1,0.5]];portConstraint=eastwest;whiteSpace=wrap;html=1;" parent="QEd4yvdWXki_lCjb84Wy-41" vertex="1">
          <mxGeometry y="86" width="160" height="26" as="geometry" />
        </mxCell>
        <mxCell id="24fqjNdx8K8JyZ3R7jgm-35" value="+ setter" style="text;strokeColor=none;fillColor=none;align=left;verticalAlign=top;spacingLeft=4;spacingRight=4;overflow=hidden;rotatable=0;points=[[0,0.5],[1,0.5]];portConstraint=eastwest;whiteSpace=wrap;html=1;" parent="QEd4yvdWXki_lCjb84Wy-41" vertex="1">
          <mxGeometry y="112" width="160" height="26" as="geometry" />
        </mxCell>
        <mxCell id="QEd4yvdWXki_lCjb84Wy-45" value="AReport" style="swimlane;fontStyle=1;align=center;verticalAlign=top;childLayout=stackLayout;horizontal=1;startSize=26;horizontalStack=0;resizeParent=1;resizeParentMax=0;resizeLast=0;collapsible=1;marginBottom=0;whiteSpace=wrap;html=1;fillColor=#a20025;fontColor=#ffffff;strokeColor=#6F0000;" parent="1" vertex="1">
          <mxGeometry x="800" y="480" width="160" height="138" as="geometry" />
        </mxCell>
        <mxCell id="QEd4yvdWXki_lCjb84Wy-46" value="# -----" style="text;strokeColor=none;fillColor=none;align=left;verticalAlign=top;spacingLeft=4;spacingRight=4;overflow=hidden;rotatable=0;points=[[0,0.5],[1,0.5]];portConstraint=eastwest;whiteSpace=wrap;html=1;" parent="QEd4yvdWXki_lCjb84Wy-45" vertex="1">
          <mxGeometry y="26" width="160" height="26" as="geometry" />
        </mxCell>
        <mxCell id="QEd4yvdWXki_lCjb84Wy-47" value="" style="line;strokeWidth=1;fillColor=none;align=left;verticalAlign=middle;spacingTop=-1;spacingLeft=3;spacingRight=3;rotatable=0;labelPosition=right;points=[];portConstraint=eastwest;strokeColor=inherit;" parent="QEd4yvdWXki_lCjb84Wy-45" vertex="1">
          <mxGeometry y="52" width="160" height="8" as="geometry" />
        </mxCell>
        <mxCell id="24fqjNdx8K8JyZ3R7jgm-31" value="+ Constructor()" style="text;strokeColor=none;fillColor=none;align=left;verticalAlign=top;spacingLeft=4;spacingRight=4;overflow=hidden;rotatable=0;points=[[0,0.5],[1,0.5]];portConstraint=eastwest;whiteSpace=wrap;html=1;" parent="QEd4yvdWXki_lCjb84Wy-45" vertex="1">
          <mxGeometry y="60" width="160" height="26" as="geometry" />
        </mxCell>
        <mxCell id="24fqjNdx8K8JyZ3R7jgm-33" value="+ getter" style="text;strokeColor=none;fillColor=none;align=left;verticalAlign=top;spacingLeft=4;spacingRight=4;overflow=hidden;rotatable=0;points=[[0,0.5],[1,0.5]];portConstraint=eastwest;whiteSpace=wrap;html=1;" parent="QEd4yvdWXki_lCjb84Wy-45" vertex="1">
          <mxGeometry y="86" width="160" height="26" as="geometry" />
        </mxCell>
        <mxCell id="24fqjNdx8K8JyZ3R7jgm-32" value="+ setter" style="text;strokeColor=none;fillColor=none;align=left;verticalAlign=top;spacingLeft=4;spacingRight=4;overflow=hidden;rotatable=0;points=[[0,0.5],[1,0.5]];portConstraint=eastwest;whiteSpace=wrap;html=1;" parent="QEd4yvdWXki_lCjb84Wy-45" vertex="1">
          <mxGeometry y="112" width="160" height="26" as="geometry" />
        </mxCell>
        <mxCell id="QEd4yvdWXki_lCjb84Wy-49" value="RequestIn" style="swimlane;fontStyle=1;align=center;verticalAlign=top;childLayout=stackLayout;horizontal=1;startSize=26;horizontalStack=0;resizeParent=1;resizeParentMax=0;resizeLast=0;collapsible=1;marginBottom=0;whiteSpace=wrap;html=1;fillColor=#a20025;fontColor=#ffffff;strokeColor=#6F0000;" parent="1" vertex="1">
          <mxGeometry x="1320" y="678" width="160" height="86" as="geometry" />
        </mxCell>
        <mxCell id="QEd4yvdWXki_lCjb84Wy-50" value="- -----" style="text;strokeColor=none;fillColor=none;align=left;verticalAlign=top;spacingLeft=4;spacingRight=4;overflow=hidden;rotatable=0;points=[[0,0.5],[1,0.5]];portConstraint=eastwest;whiteSpace=wrap;html=1;" parent="QEd4yvdWXki_lCjb84Wy-49" vertex="1">
          <mxGeometry y="26" width="160" height="26" as="geometry" />
        </mxCell>
        <mxCell id="QEd4yvdWXki_lCjb84Wy-51" value="" style="line;strokeWidth=1;fillColor=none;align=left;verticalAlign=middle;spacingTop=-1;spacingLeft=3;spacingRight=3;rotatable=0;labelPosition=right;points=[];portConstraint=eastwest;strokeColor=inherit;" parent="QEd4yvdWXki_lCjb84Wy-49" vertex="1">
          <mxGeometry y="52" width="160" height="8" as="geometry" />
        </mxCell>
        <mxCell id="QEd4yvdWXki_lCjb84Wy-52" value="+ Constructor(String)" style="text;strokeColor=none;fillColor=none;align=left;verticalAlign=top;spacingLeft=4;spacingRight=4;overflow=hidden;rotatable=0;points=[[0,0.5],[1,0.5]];portConstraint=eastwest;whiteSpace=wrap;html=1;" parent="QEd4yvdWXki_lCjb84Wy-49" vertex="1">
          <mxGeometry y="60" width="160" height="26" as="geometry" />
        </mxCell>
        <mxCell id="QEd4yvdWXki_lCjb84Wy-53" value="RequestOut" style="swimlane;fontStyle=1;align=center;verticalAlign=top;childLayout=stackLayout;horizontal=1;startSize=26;horizontalStack=0;resizeParent=1;resizeParentMax=0;resizeLast=0;collapsible=1;marginBottom=0;whiteSpace=wrap;html=1;fillColor=#a20025;fontColor=#ffffff;strokeColor=#6F0000;" parent="1" vertex="1">
          <mxGeometry x="1120" y="678" width="160" height="86" as="geometry" />
        </mxCell>
        <mxCell id="QEd4yvdWXki_lCjb84Wy-54" value="- -----" style="text;strokeColor=none;fillColor=none;align=left;verticalAlign=top;spacingLeft=4;spacingRight=4;overflow=hidden;rotatable=0;points=[[0,0.5],[1,0.5]];portConstraint=eastwest;whiteSpace=wrap;html=1;" parent="QEd4yvdWXki_lCjb84Wy-53" vertex="1">
          <mxGeometry y="26" width="160" height="26" as="geometry" />
        </mxCell>
        <mxCell id="QEd4yvdWXki_lCjb84Wy-55" value="" style="line;strokeWidth=1;fillColor=none;align=left;verticalAlign=middle;spacingTop=-1;spacingLeft=3;spacingRight=3;rotatable=0;labelPosition=right;points=[];portConstraint=eastwest;strokeColor=inherit;" parent="QEd4yvdWXki_lCjb84Wy-53" vertex="1">
          <mxGeometry y="52" width="160" height="8" as="geometry" />
        </mxCell>
        <mxCell id="QEd4yvdWXki_lCjb84Wy-56" value="+ Constructor(String)" style="text;strokeColor=none;fillColor=none;align=left;verticalAlign=top;spacingLeft=4;spacingRight=4;overflow=hidden;rotatable=0;points=[[0,0.5],[1,0.5]];portConstraint=eastwest;whiteSpace=wrap;html=1;" parent="QEd4yvdWXki_lCjb84Wy-53" vertex="1">
          <mxGeometry y="60" width="160" height="26" as="geometry" />
        </mxCell>
        <mxCell id="QEd4yvdWXki_lCjb84Wy-57" value="ReportIn" style="swimlane;fontStyle=1;align=center;verticalAlign=top;childLayout=stackLayout;horizontal=1;startSize=26;horizontalStack=0;resizeParent=1;resizeParentMax=0;resizeLast=0;collapsible=1;marginBottom=0;whiteSpace=wrap;html=1;fillColor=#a20025;fontColor=#ffffff;strokeColor=#6F0000;" parent="1" vertex="1">
          <mxGeometry x="700" y="678" width="160" height="86" as="geometry" />
        </mxCell>
        <mxCell id="QEd4yvdWXki_lCjb84Wy-58" value="- -----" style="text;strokeColor=none;fillColor=none;align=left;verticalAlign=top;spacingLeft=4;spacingRight=4;overflow=hidden;rotatable=0;points=[[0,0.5],[1,0.5]];portConstraint=eastwest;whiteSpace=wrap;html=1;" parent="QEd4yvdWXki_lCjb84Wy-57" vertex="1">
          <mxGeometry y="26" width="160" height="26" as="geometry" />
        </mxCell>
        <mxCell id="QEd4yvdWXki_lCjb84Wy-59" value="" style="line;strokeWidth=1;fillColor=none;align=left;verticalAlign=middle;spacingTop=-1;spacingLeft=3;spacingRight=3;rotatable=0;labelPosition=right;points=[];portConstraint=eastwest;strokeColor=inherit;" parent="QEd4yvdWXki_lCjb84Wy-57" vertex="1">
          <mxGeometry y="52" width="160" height="8" as="geometry" />
        </mxCell>
        <mxCell id="QEd4yvdWXki_lCjb84Wy-60" value="+ Constructor(String)" style="text;strokeColor=none;fillColor=none;align=left;verticalAlign=top;spacingLeft=4;spacingRight=4;overflow=hidden;rotatable=0;points=[[0,0.5],[1,0.5]];portConstraint=eastwest;whiteSpace=wrap;html=1;" parent="QEd4yvdWXki_lCjb84Wy-57" vertex="1">
          <mxGeometry y="60" width="160" height="26" as="geometry" />
        </mxCell>
        <mxCell id="QEd4yvdWXki_lCjb84Wy-61" value="ReportOut" style="swimlane;fontStyle=1;align=center;verticalAlign=top;childLayout=stackLayout;horizontal=1;startSize=26;horizontalStack=0;resizeParent=1;resizeParentMax=0;resizeLast=0;collapsible=1;marginBottom=0;whiteSpace=wrap;html=1;fillColor=#a20025;fontColor=#ffffff;strokeColor=#6F0000;" parent="1" vertex="1">
          <mxGeometry x="900" y="678" width="160" height="86" as="geometry" />
        </mxCell>
        <mxCell id="QEd4yvdWXki_lCjb84Wy-62" value="- -----" style="text;strokeColor=none;fillColor=none;align=left;verticalAlign=top;spacingLeft=4;spacingRight=4;overflow=hidden;rotatable=0;points=[[0,0.5],[1,0.5]];portConstraint=eastwest;whiteSpace=wrap;html=1;" parent="QEd4yvdWXki_lCjb84Wy-61" vertex="1">
          <mxGeometry y="26" width="160" height="26" as="geometry" />
        </mxCell>
        <mxCell id="QEd4yvdWXki_lCjb84Wy-63" value="" style="line;strokeWidth=1;fillColor=none;align=left;verticalAlign=middle;spacingTop=-1;spacingLeft=3;spacingRight=3;rotatable=0;labelPosition=right;points=[];portConstraint=eastwest;strokeColor=inherit;" parent="QEd4yvdWXki_lCjb84Wy-61" vertex="1">
          <mxGeometry y="52" width="160" height="8" as="geometry" />
        </mxCell>
        <mxCell id="QEd4yvdWXki_lCjb84Wy-64" value="+ Constructor(String)" style="text;strokeColor=none;fillColor=none;align=left;verticalAlign=top;spacingLeft=4;spacingRight=4;overflow=hidden;rotatable=0;points=[[0,0.5],[1,0.5]];portConstraint=eastwest;whiteSpace=wrap;html=1;" parent="QEd4yvdWXki_lCjb84Wy-61" vertex="1">
          <mxGeometry y="60" width="160" height="26" as="geometry" />
        </mxCell>
        <mxCell id="QEd4yvdWXki_lCjb84Wy-67" value="extend" style="edgeStyle=orthogonalEdgeStyle;rounded=0;orthogonalLoop=1;jettySize=auto;html=1;exitX=0.5;exitY=0;exitDx=0;exitDy=0;endArrow=block;endFill=0;" parent="1" source="QEd4yvdWXki_lCjb84Wy-49" target="QEd4yvdWXki_lCjb84Wy-41" edge="1">
          <mxGeometry relative="1" as="geometry" />
        </mxCell>
        <mxCell id="QEd4yvdWXki_lCjb84Wy-68" value="extend" style="edgeStyle=orthogonalEdgeStyle;rounded=0;orthogonalLoop=1;jettySize=auto;html=1;exitX=0.5;exitY=0;exitDx=0;exitDy=0;endArrow=block;endFill=0;" parent="1" source="QEd4yvdWXki_lCjb84Wy-53" target="QEd4yvdWXki_lCjb84Wy-41" edge="1">
          <mxGeometry relative="1" as="geometry" />
        </mxCell>
        <mxCell id="QEd4yvdWXki_lCjb84Wy-69" value="extend" style="edgeStyle=orthogonalEdgeStyle;rounded=0;orthogonalLoop=1;jettySize=auto;html=1;endArrow=block;endFill=0;" parent="1" source="QEd4yvdWXki_lCjb84Wy-57" target="QEd4yvdWXki_lCjb84Wy-45" edge="1">
          <mxGeometry relative="1" as="geometry" />
        </mxCell>
        <mxCell id="QEd4yvdWXki_lCjb84Wy-70" value="extend" style="edgeStyle=orthogonalEdgeStyle;rounded=0;orthogonalLoop=1;jettySize=auto;html=1;exitX=0.5;exitY=0;exitDx=0;exitDy=0;endArrow=block;endFill=0;" parent="1" source="QEd4yvdWXki_lCjb84Wy-61" target="QEd4yvdWXki_lCjb84Wy-45" edge="1">
          <mxGeometry relative="1" as="geometry" />
        </mxCell>
        <mxCell id="QEd4yvdWXki_lCjb84Wy-85" value="has" style="edgeStyle=orthogonalEdgeStyle;rounded=0;orthogonalLoop=1;jettySize=auto;html=1;dashed=1;endArrow=open;endFill=0;" parent="1" source="QEd4yvdWXki_lCjb84Wy-9" target="QEd4yvdWXki_lCjb84Wy-41" edge="1">
          <mxGeometry relative="1" as="geometry">
            <Array as="points">
              <mxPoint x="1300" y="280" />
            </Array>
          </mxGeometry>
        </mxCell>
        <mxCell id="QEd4yvdWXki_lCjb84Wy-86" value="has" style="edgeStyle=orthogonalEdgeStyle;rounded=0;orthogonalLoop=1;jettySize=auto;html=1;dashed=1;endArrow=open;endFill=0;" parent="1" source="QEd4yvdWXki_lCjb84Wy-9" target="QEd4yvdWXki_lCjb84Wy-45" edge="1">
          <mxGeometry relative="1" as="geometry">
            <Array as="points">
              <mxPoint x="860" y="280" />
            </Array>
          </mxGeometry>
        </mxCell>
        <mxCell id="24fqjNdx8K8JyZ3R7jgm-49" value="has" style="edgeStyle=orthogonalEdgeStyle;rounded=0;orthogonalLoop=1;jettySize=auto;html=1;dashed=1;endArrow=open;endFill=0;" parent="1" source="QEd4yvdWXki_lCjb84Wy-17" target="QEd4yvdWXki_lCjb84Wy-9" edge="1">
          <mxGeometry x="0.4677" relative="1" as="geometry">
            <mxPoint x="800" y="413" as="sourcePoint" />
            <mxPoint x="940" y="203" as="targetPoint" />
            <mxPoint as="offset" />
          </mxGeometry>
        </mxCell>
        <mxCell id="24fqjNdx8K8JyZ3R7jgm-51" value="khi Object User được khởi tạo và hưởng các tt của người dụng hiện hành, các list cũng được khởi tạo" style="text;html=1;align=center;verticalAlign=middle;resizable=0;points=[];autosize=1;strokeColor=none;fillColor=none;horizontal=1;textOpacity=60;fontSize=8;" parent="1" vertex="1">
          <mxGeometry x="905" y="55" width="390" height="20" as="geometry" />
        </mxCell>
        <mxCell id="24fqjNdx8K8JyZ3R7jgm-52" value="Main" style="swimlane;fontStyle=1;align=center;verticalAlign=top;childLayout=stackLayout;horizontal=1;startSize=26;horizontalStack=0;resizeParent=1;resizeParentMax=0;resizeLast=0;collapsible=1;marginBottom=0;whiteSpace=wrap;html=1;" parent="1" vertex="1">
          <mxGeometry x="-42.5" y="40" width="165" height="182" as="geometry" />
        </mxCell>
        <mxCell id="24fqjNdx8K8JyZ3R7jgm-55" value="- currentAccount: Account" style="text;strokeColor=none;fillColor=none;align=left;verticalAlign=top;spacingLeft=4;spacingRight=4;overflow=hidden;rotatable=0;points=[[0,0.5],[1,0.5]];portConstraint=eastwest;whiteSpace=wrap;html=1;" parent="24fqjNdx8K8JyZ3R7jgm-52" vertex="1">
          <mxGeometry y="26" width="165" height="26" as="geometry" />
        </mxCell>
        <mxCell id="wSfvabTkz_njAGNaBWXI-8" value="- startUpScreen : LogScreen" style="text;strokeColor=none;fillColor=none;align=left;verticalAlign=top;spacingLeft=4;spacingRight=4;overflow=hidden;rotatable=0;points=[[0,0.5],[1,0.5]];portConstraint=eastwest;whiteSpace=wrap;html=1;" parent="24fqjNdx8K8JyZ3R7jgm-52" vertex="1">
          <mxGeometry y="52" width="165" height="26" as="geometry" />
        </mxCell>
        <mxCell id="DpmKQaN_tZVzSyYiAJMI-11" value="- menu : Menu" style="text;strokeColor=none;fillColor=none;align=left;verticalAlign=top;spacingLeft=4;spacingRight=4;overflow=hidden;rotatable=0;points=[[0,0.5],[1,0.5]];portConstraint=eastwest;whiteSpace=wrap;html=1;" parent="24fqjNdx8K8JyZ3R7jgm-52" vertex="1">
          <mxGeometry y="78" width="165" height="26" as="geometry" />
        </mxCell>
        <mxCell id="24fqjNdx8K8JyZ3R7jgm-57" value="" style="line;strokeWidth=1;fillColor=none;align=left;verticalAlign=middle;spacingTop=-1;spacingLeft=3;spacingRight=3;rotatable=0;labelPosition=right;points=[];portConstraint=eastwest;strokeColor=inherit;" parent="24fqjNdx8K8JyZ3R7jgm-52" vertex="1">
          <mxGeometry y="104" width="165" height="8" as="geometry" />
        </mxCell>
        <mxCell id="24fqjNdx8K8JyZ3R7jgm-65" value="Luồng chính, khi chạy app, việc&lt;div&gt;đầu tiên&amp;nbsp;&lt;span style=&quot;background-color: initial;&quot;&gt;được thực hiện là&lt;/span&gt;&lt;/div&gt;&lt;div&gt;&lt;span style=&quot;background-color: initial;&quot;&gt;init/ khởi tạo logScreen &amp;amp; object Account.&lt;/span&gt;&lt;/div&gt;&lt;div&gt;&lt;span style=&quot;background-color: initial;&quot;&gt;Khi có account tồn tại. khởi chạy&lt;/span&gt;&lt;/div&gt;&lt;div&gt;&lt;span style=&quot;background-color: initial;&quot;&gt;Menu để đọc choice của user.&lt;/span&gt;&lt;/div&gt;&lt;div&gt;&lt;span style=&quot;background-color: initial;&quot;&gt;+ menuStart(boolean) :&amp;nbsp;&lt;/span&gt;&lt;span style=&quot;background-color: initial;&quot;&gt;boolean&lt;/span&gt;&lt;/div&gt;" style="text;html=1;align=center;verticalAlign=middle;resizable=0;points=[];autosize=1;strokeColor=none;fillColor=none;horizontal=1;textOpacity=60;fontSize=8;" parent="24fqjNdx8K8JyZ3R7jgm-52" vertex="1">
          <mxGeometry y="112" width="165" height="70" as="geometry" />
        </mxCell>
        <mxCell id="24fqjNdx8K8JyZ3R7jgm-67" value="Các constructor của các object list, tồn tại bên trong object user, có&amp;nbsp;&lt;div style=&quot;font-size: 8px;&quot;&gt;quyền truy cập ID của user. Sử dụng để truy xuất dữ liệu từ database,&amp;nbsp;&lt;/div&gt;&lt;div style=&quot;font-size: 8px;&quot;&gt;cập nhật vào bản thân và lôi ra hiển thị trên giao diện khi cần.&lt;/div&gt;" style="text;html=1;align=center;verticalAlign=middle;resizable=0;points=[];autosize=1;strokeColor=none;fillColor=none;horizontal=1;textOpacity=60;fontSize=8;" parent="1" vertex="1">
          <mxGeometry x="1185" y="774" width="270" height="40" as="geometry" />
        </mxCell>
        <mxCell id="24fqjNdx8K8JyZ3R7jgm-69" value="has" style="edgeStyle=orthogonalEdgeStyle;rounded=0;orthogonalLoop=1;jettySize=auto;html=1;dashed=1;endArrow=open;endFill=0;entryX=0.5;entryY=0;entryDx=0;entryDy=0;" parent="1" source="24fqjNdx8K8JyZ3R7jgm-52" target="QEd4yvdWXki_lCjb84Wy-17" edge="1">
          <mxGeometry y="2" relative="1" as="geometry">
            <mxPoint x="590" y="242" as="sourcePoint" />
            <mxPoint x="500" y="230" as="targetPoint" />
            <mxPoint as="offset" />
          </mxGeometry>
        </mxCell>
        <mxCell id="24fqjNdx8K8JyZ3R7jgm-70" value="Quẳng cho chóa ăn, thừa" style="text;html=1;align=center;verticalAlign=middle;resizable=0;points=[];autosize=1;strokeColor=none;fillColor=none;" parent="1" vertex="1">
          <mxGeometry x="1340" y="1056" width="160" height="30" as="geometry" />
        </mxCell>
        <mxCell id="24fqjNdx8K8JyZ3R7jgm-78" value="has" style="edgeStyle=orthogonalEdgeStyle;rounded=0;orthogonalLoop=1;jettySize=auto;html=1;dashed=1;endArrow=open;endFill=0;" parent="1" source="24fqjNdx8K8JyZ3R7jgm-21" target="QEd4yvdWXki_lCjb84Wy-13" edge="1">
          <mxGeometry relative="1" as="geometry" />
        </mxCell>
        <mxCell id="24fqjNdx8K8JyZ3R7jgm-80" value="User thì đ tạo Report được, nên nó không có hàm newRep()&lt;br style=&quot;font-size: 8px;&quot;&gt;hàm đấy do giải thuật kiểm duyệt của mình làm, khi duyệt&lt;div style=&quot;font-size: 8px;&quot;&gt;thì nhả ra thì nhà vào list của user + nhả vào database.&lt;br style=&quot;font-size: 8px;&quot;&gt;user có thể chọn nút view để hiện ngay, hoặc tắt app mở&lt;/div&gt;&lt;div style=&quot;font-size: 8px;&quot;&gt;lại vẫn xem được (2 cái hàm get sẽ chạy khi nút bấm thực&lt;/div&gt;&lt;div style=&quot;font-size: 8px;&quot;&gt;hiện, đẩy đống object từ database lên các list).&lt;/div&gt;" style="text;html=1;align=center;verticalAlign=middle;resizable=0;points=[];autosize=1;strokeColor=none;fillColor=none;horizontal=1;textOpacity=60;fontSize=8;" parent="1" vertex="1">
          <mxGeometry x="1155" y="110" width="240" height="70" as="geometry" />
        </mxCell>
        <mxCell id="24fqjNdx8K8JyZ3R7jgm-81" value="cái hàm get sẽ làm do-while, gọi object đầu tiên lên,&lt;div style=&quot;font-size: 8px;&quot;&gt;là Null thì xem như user không có tài iệu để up lên&lt;/div&gt;&lt;div style=&quot;font-size: 8px;&quot;&gt;UI. có thì check pointer tiếp theo đẩy lên tiếp.&lt;br style=&quot;font-size: 8px;&quot;&gt;Hoặc sài For_range. note đọc là đọc từ json lên và thực&lt;/div&gt;&lt;div style=&quot;font-size: 8px;&quot;&gt;tái tạo object bằng dữ liệu đấy, chứ k phải đọc từ chỗ khác&lt;/div&gt;&lt;div style=&quot;font-size: 8px;&quot;&gt;trong memory như thông thường (đều được&lt;/div&gt;&lt;div style=&quot;font-size: 8px;&quot;&gt;tồn tại sẵn ở container khác)&lt;/div&gt;" style="text;html=1;align=center;verticalAlign=middle;resizable=0;points=[];autosize=1;strokeColor=none;fillColor=none;horizontal=1;textOpacity=60;fontSize=8;" parent="1" vertex="1">
          <mxGeometry x="1155" y="180" width="230" height="80" as="geometry" />
        </mxCell>
        <mxCell id="wSfvabTkz_njAGNaBWXI-2" value="Menu" style="swimlane;fontStyle=1;align=center;verticalAlign=top;childLayout=stackLayout;horizontal=1;startSize=26;horizontalStack=0;resizeParent=1;resizeParentMax=0;resizeLast=0;collapsible=1;marginBottom=0;whiteSpace=wrap;html=1;" parent="1" vertex="1">
          <mxGeometry x="320" y="402" width="160" height="216" as="geometry" />
        </mxCell>
        <mxCell id="wSfvabTkz_njAGNaBWXI-3" value="+ lobby : Jframe" style="text;strokeColor=none;fillColor=none;align=left;verticalAlign=top;spacingLeft=4;spacingRight=4;overflow=hidden;rotatable=0;points=[[0,0.5],[1,0.5]];portConstraint=eastwest;whiteSpace=wrap;html=1;" parent="wSfvabTkz_njAGNaBWXI-2" vertex="1">
          <mxGeometry y="26" width="160" height="26" as="geometry" />
        </mxCell>
        <mxCell id="wSfvabTkz_njAGNaBWXI-9" value="&lt;div&gt;+ lựa chọn 1 : Button&lt;br&gt;&lt;/div&gt;" style="text;strokeColor=none;fillColor=none;align=left;verticalAlign=top;spacingLeft=4;spacingRight=4;overflow=hidden;rotatable=0;points=[[0,0.5],[1,0.5]];portConstraint=eastwest;whiteSpace=wrap;html=1;" parent="wSfvabTkz_njAGNaBWXI-2" vertex="1">
          <mxGeometry y="52" width="160" height="26" as="geometry" />
        </mxCell>
        <mxCell id="wSfvabTkz_njAGNaBWXI-10" value="&lt;div&gt;+ lựa chọn 2 : Button&lt;br&gt;&lt;/div&gt;" style="text;strokeColor=none;fillColor=none;align=left;verticalAlign=top;spacingLeft=4;spacingRight=4;overflow=hidden;rotatable=0;points=[[0,0.5],[1,0.5]];portConstraint=eastwest;whiteSpace=wrap;html=1;" parent="wSfvabTkz_njAGNaBWXI-2" vertex="1">
          <mxGeometry y="78" width="160" height="26" as="geometry" />
        </mxCell>
        <mxCell id="wSfvabTkz_njAGNaBWXI-12" value="- -----" style="text;strokeColor=none;fillColor=none;align=left;verticalAlign=top;spacingLeft=4;spacingRight=4;overflow=hidden;rotatable=0;points=[[0,0.5],[1,0.5]];portConstraint=eastwest;whiteSpace=wrap;html=1;" parent="wSfvabTkz_njAGNaBWXI-2" vertex="1">
          <mxGeometry y="104" width="160" height="26" as="geometry" />
        </mxCell>
        <mxCell id="wSfvabTkz_njAGNaBWXI-11" value="- -----" style="text;strokeColor=none;fillColor=none;align=left;verticalAlign=top;spacingLeft=4;spacingRight=4;overflow=hidden;rotatable=0;points=[[0,0.5],[1,0.5]];portConstraint=eastwest;whiteSpace=wrap;html=1;" parent="wSfvabTkz_njAGNaBWXI-2" vertex="1">
          <mxGeometry y="130" width="160" height="26" as="geometry" />
        </mxCell>
        <mxCell id="wSfvabTkz_njAGNaBWXI-13" value="- -----" style="text;strokeColor=none;fillColor=none;align=left;verticalAlign=top;spacingLeft=4;spacingRight=4;overflow=hidden;rotatable=0;points=[[0,0.5],[1,0.5]];portConstraint=eastwest;whiteSpace=wrap;html=1;" parent="wSfvabTkz_njAGNaBWXI-2" vertex="1">
          <mxGeometry y="156" width="160" height="26" as="geometry" />
        </mxCell>
        <mxCell id="wSfvabTkz_njAGNaBWXI-14" value="- -----" style="text;strokeColor=none;fillColor=none;align=left;verticalAlign=top;spacingLeft=4;spacingRight=4;overflow=hidden;rotatable=0;points=[[0,0.5],[1,0.5]];portConstraint=eastwest;whiteSpace=wrap;html=1;" parent="wSfvabTkz_njAGNaBWXI-2" vertex="1">
          <mxGeometry y="182" width="160" height="26" as="geometry" />
        </mxCell>
        <mxCell id="wSfvabTkz_njAGNaBWXI-4" value="" style="line;strokeWidth=1;fillColor=none;align=left;verticalAlign=middle;spacingTop=-1;spacingLeft=3;spacingRight=3;rotatable=0;labelPosition=right;points=[];portConstraint=eastwest;strokeColor=inherit;" parent="wSfvabTkz_njAGNaBWXI-2" vertex="1">
          <mxGeometry y="208" width="160" height="8" as="geometry" />
        </mxCell>
        <mxCell id="wSfvabTkz_njAGNaBWXI-7" value="use" style="edgeStyle=orthogonalEdgeStyle;rounded=0;orthogonalLoop=1;jettySize=auto;html=1;dashed=1;endArrow=open;endFill=0;" parent="1" source="24fqjNdx8K8JyZ3R7jgm-52" target="wSfvabTkz_njAGNaBWXI-2" edge="1">
          <mxGeometry x="0.4574" relative="1" as="geometry">
            <mxPoint x="435" y="312" as="sourcePoint" />
            <mxPoint x="540" y="302" as="targetPoint" />
            <mxPoint as="offset" />
          </mxGeometry>
        </mxCell>
        <mxCell id="wSfvabTkz_njAGNaBWXI-15" value="Button" style="swimlane;fontStyle=1;align=center;verticalAlign=top;childLayout=stackLayout;horizontal=1;startSize=26;horizontalStack=0;resizeParent=1;resizeParentMax=0;resizeLast=0;collapsible=1;marginBottom=0;whiteSpace=wrap;html=1;" parent="1" vertex="1">
          <mxGeometry x="320" y="684" width="160" height="216" as="geometry" />
        </mxCell>
        <mxCell id="wSfvabTkz_njAGNaBWXI-16" value="+ myButton : Jbutton" style="text;strokeColor=none;fillColor=none;align=left;verticalAlign=top;spacingLeft=4;spacingRight=4;overflow=hidden;rotatable=0;points=[[0,0.5],[1,0.5]];portConstraint=eastwest;whiteSpace=wrap;html=1;" parent="wSfvabTkz_njAGNaBWXI-15" vertex="1">
          <mxGeometry y="26" width="160" height="26" as="geometry" />
        </mxCell>
        <mxCell id="wSfvabTkz_njAGNaBWXI-17" value="&lt;div&gt;- -----&lt;br&gt;&lt;/div&gt;" style="text;strokeColor=none;fillColor=none;align=left;verticalAlign=top;spacingLeft=4;spacingRight=4;overflow=hidden;rotatable=0;points=[[0,0.5],[1,0.5]];portConstraint=eastwest;whiteSpace=wrap;html=1;" parent="wSfvabTkz_njAGNaBWXI-15" vertex="1">
          <mxGeometry y="52" width="160" height="26" as="geometry" />
        </mxCell>
        <mxCell id="wSfvabTkz_njAGNaBWXI-18" value="&lt;div&gt;- -----&lt;br&gt;&lt;/div&gt;" style="text;strokeColor=none;fillColor=none;align=left;verticalAlign=top;spacingLeft=4;spacingRight=4;overflow=hidden;rotatable=0;points=[[0,0.5],[1,0.5]];portConstraint=eastwest;whiteSpace=wrap;html=1;" parent="wSfvabTkz_njAGNaBWXI-15" vertex="1">
          <mxGeometry y="78" width="160" height="26" as="geometry" />
        </mxCell>
        <mxCell id="wSfvabTkz_njAGNaBWXI-19" value="- -----" style="text;strokeColor=none;fillColor=none;align=left;verticalAlign=top;spacingLeft=4;spacingRight=4;overflow=hidden;rotatable=0;points=[[0,0.5],[1,0.5]];portConstraint=eastwest;whiteSpace=wrap;html=1;" parent="wSfvabTkz_njAGNaBWXI-15" vertex="1">
          <mxGeometry y="104" width="160" height="26" as="geometry" />
        </mxCell>
        <mxCell id="wSfvabTkz_njAGNaBWXI-20" value="- -----" style="text;strokeColor=none;fillColor=none;align=left;verticalAlign=top;spacingLeft=4;spacingRight=4;overflow=hidden;rotatable=0;points=[[0,0.5],[1,0.5]];portConstraint=eastwest;whiteSpace=wrap;html=1;" parent="wSfvabTkz_njAGNaBWXI-15" vertex="1">
          <mxGeometry y="130" width="160" height="26" as="geometry" />
        </mxCell>
        <mxCell id="wSfvabTkz_njAGNaBWXI-21" value="- -----" style="text;strokeColor=none;fillColor=none;align=left;verticalAlign=top;spacingLeft=4;spacingRight=4;overflow=hidden;rotatable=0;points=[[0,0.5],[1,0.5]];portConstraint=eastwest;whiteSpace=wrap;html=1;" parent="wSfvabTkz_njAGNaBWXI-15" vertex="1">
          <mxGeometry y="156" width="160" height="26" as="geometry" />
        </mxCell>
        <mxCell id="wSfvabTkz_njAGNaBWXI-22" value="- -----" style="text;strokeColor=none;fillColor=none;align=left;verticalAlign=top;spacingLeft=4;spacingRight=4;overflow=hidden;rotatable=0;points=[[0,0.5],[1,0.5]];portConstraint=eastwest;whiteSpace=wrap;html=1;" parent="wSfvabTkz_njAGNaBWXI-15" vertex="1">
          <mxGeometry y="182" width="160" height="26" as="geometry" />
        </mxCell>
        <mxCell id="wSfvabTkz_njAGNaBWXI-23" value="" style="line;strokeWidth=1;fillColor=none;align=left;verticalAlign=middle;spacingTop=-1;spacingLeft=3;spacingRight=3;rotatable=0;labelPosition=right;points=[];portConstraint=eastwest;strokeColor=inherit;" parent="wSfvabTkz_njAGNaBWXI-15" vertex="1">
          <mxGeometry y="208" width="160" height="8" as="geometry" />
        </mxCell>
        <mxCell id="wSfvabTkz_njAGNaBWXI-24" value="use" style="edgeStyle=orthogonalEdgeStyle;rounded=0;orthogonalLoop=1;jettySize=auto;html=1;dashed=1;endArrow=open;endFill=0;" parent="1" source="wSfvabTkz_njAGNaBWXI-2" target="wSfvabTkz_njAGNaBWXI-15" edge="1">
          <mxGeometry x="0.4574" relative="1" as="geometry">
            <mxPoint x="370" y="357" as="sourcePoint" />
            <mxPoint x="490" y="490" as="targetPoint" />
            <mxPoint as="offset" />
          </mxGeometry>
        </mxCell>
        <mxCell id="wSfvabTkz_njAGNaBWXI-25" value="Image" style="swimlane;fontStyle=1;align=center;verticalAlign=top;childLayout=stackLayout;horizontal=1;startSize=26;horizontalStack=0;resizeParent=1;resizeParentMax=0;resizeLast=0;collapsible=1;marginBottom=0;whiteSpace=wrap;html=1;" parent="1" vertex="1">
          <mxGeometry x="140" y="684" width="160" height="216" as="geometry" />
        </mxCell>
        <mxCell id="wSfvabTkz_njAGNaBWXI-26" value="- -----" style="text;strokeColor=none;fillColor=none;align=left;verticalAlign=top;spacingLeft=4;spacingRight=4;overflow=hidden;rotatable=0;points=[[0,0.5],[1,0.5]];portConstraint=eastwest;whiteSpace=wrap;html=1;" parent="wSfvabTkz_njAGNaBWXI-25" vertex="1">
          <mxGeometry y="26" width="160" height="26" as="geometry" />
        </mxCell>
        <mxCell id="wSfvabTkz_njAGNaBWXI-27" value="&lt;div&gt;- -----&lt;br&gt;&lt;/div&gt;" style="text;strokeColor=none;fillColor=none;align=left;verticalAlign=top;spacingLeft=4;spacingRight=4;overflow=hidden;rotatable=0;points=[[0,0.5],[1,0.5]];portConstraint=eastwest;whiteSpace=wrap;html=1;" parent="wSfvabTkz_njAGNaBWXI-25" vertex="1">
          <mxGeometry y="52" width="160" height="26" as="geometry" />
        </mxCell>
        <mxCell id="wSfvabTkz_njAGNaBWXI-28" value="&lt;div&gt;- -----&lt;br&gt;&lt;/div&gt;" style="text;strokeColor=none;fillColor=none;align=left;verticalAlign=top;spacingLeft=4;spacingRight=4;overflow=hidden;rotatable=0;points=[[0,0.5],[1,0.5]];portConstraint=eastwest;whiteSpace=wrap;html=1;" parent="wSfvabTkz_njAGNaBWXI-25" vertex="1">
          <mxGeometry y="78" width="160" height="26" as="geometry" />
        </mxCell>
        <mxCell id="wSfvabTkz_njAGNaBWXI-29" value="- -----" style="text;strokeColor=none;fillColor=none;align=left;verticalAlign=top;spacingLeft=4;spacingRight=4;overflow=hidden;rotatable=0;points=[[0,0.5],[1,0.5]];portConstraint=eastwest;whiteSpace=wrap;html=1;" parent="wSfvabTkz_njAGNaBWXI-25" vertex="1">
          <mxGeometry y="104" width="160" height="26" as="geometry" />
        </mxCell>
        <mxCell id="wSfvabTkz_njAGNaBWXI-30" value="- -----" style="text;strokeColor=none;fillColor=none;align=left;verticalAlign=top;spacingLeft=4;spacingRight=4;overflow=hidden;rotatable=0;points=[[0,0.5],[1,0.5]];portConstraint=eastwest;whiteSpace=wrap;html=1;" parent="wSfvabTkz_njAGNaBWXI-25" vertex="1">
          <mxGeometry y="130" width="160" height="26" as="geometry" />
        </mxCell>
        <mxCell id="wSfvabTkz_njAGNaBWXI-31" value="- -----" style="text;strokeColor=none;fillColor=none;align=left;verticalAlign=top;spacingLeft=4;spacingRight=4;overflow=hidden;rotatable=0;points=[[0,0.5],[1,0.5]];portConstraint=eastwest;whiteSpace=wrap;html=1;" parent="wSfvabTkz_njAGNaBWXI-25" vertex="1">
          <mxGeometry y="156" width="160" height="26" as="geometry" />
        </mxCell>
        <mxCell id="wSfvabTkz_njAGNaBWXI-32" value="- -----" style="text;strokeColor=none;fillColor=none;align=left;verticalAlign=top;spacingLeft=4;spacingRight=4;overflow=hidden;rotatable=0;points=[[0,0.5],[1,0.5]];portConstraint=eastwest;whiteSpace=wrap;html=1;" parent="wSfvabTkz_njAGNaBWXI-25" vertex="1">
          <mxGeometry y="182" width="160" height="26" as="geometry" />
        </mxCell>
        <mxCell id="wSfvabTkz_njAGNaBWXI-33" value="" style="line;strokeWidth=1;fillColor=none;align=left;verticalAlign=middle;spacingTop=-1;spacingLeft=3;spacingRight=3;rotatable=0;labelPosition=right;points=[];portConstraint=eastwest;strokeColor=inherit;" parent="wSfvabTkz_njAGNaBWXI-25" vertex="1">
          <mxGeometry y="208" width="160" height="8" as="geometry" />
        </mxCell>
        <mxCell id="wSfvabTkz_njAGNaBWXI-34" value="Pannel" style="swimlane;fontStyle=1;align=center;verticalAlign=top;childLayout=stackLayout;horizontal=1;startSize=26;horizontalStack=0;resizeParent=1;resizeParentMax=0;resizeLast=0;collapsible=1;marginBottom=0;whiteSpace=wrap;html=1;" parent="1" vertex="1">
          <mxGeometry x="500" y="686" width="160" height="216" as="geometry" />
        </mxCell>
        <mxCell id="wSfvabTkz_njAGNaBWXI-35" value="- -----" style="text;strokeColor=none;fillColor=none;align=left;verticalAlign=top;spacingLeft=4;spacingRight=4;overflow=hidden;rotatable=0;points=[[0,0.5],[1,0.5]];portConstraint=eastwest;whiteSpace=wrap;html=1;" parent="wSfvabTkz_njAGNaBWXI-34" vertex="1">
          <mxGeometry y="26" width="160" height="26" as="geometry" />
        </mxCell>
        <mxCell id="wSfvabTkz_njAGNaBWXI-36" value="&lt;div&gt;- -----&lt;br&gt;&lt;/div&gt;" style="text;strokeColor=none;fillColor=none;align=left;verticalAlign=top;spacingLeft=4;spacingRight=4;overflow=hidden;rotatable=0;points=[[0,0.5],[1,0.5]];portConstraint=eastwest;whiteSpace=wrap;html=1;" parent="wSfvabTkz_njAGNaBWXI-34" vertex="1">
          <mxGeometry y="52" width="160" height="26" as="geometry" />
        </mxCell>
        <mxCell id="wSfvabTkz_njAGNaBWXI-37" value="&lt;div&gt;- -----&lt;br&gt;&lt;/div&gt;" style="text;strokeColor=none;fillColor=none;align=left;verticalAlign=top;spacingLeft=4;spacingRight=4;overflow=hidden;rotatable=0;points=[[0,0.5],[1,0.5]];portConstraint=eastwest;whiteSpace=wrap;html=1;" parent="wSfvabTkz_njAGNaBWXI-34" vertex="1">
          <mxGeometry y="78" width="160" height="26" as="geometry" />
        </mxCell>
        <mxCell id="wSfvabTkz_njAGNaBWXI-38" value="- -----" style="text;strokeColor=none;fillColor=none;align=left;verticalAlign=top;spacingLeft=4;spacingRight=4;overflow=hidden;rotatable=0;points=[[0,0.5],[1,0.5]];portConstraint=eastwest;whiteSpace=wrap;html=1;" parent="wSfvabTkz_njAGNaBWXI-34" vertex="1">
          <mxGeometry y="104" width="160" height="26" as="geometry" />
        </mxCell>
        <mxCell id="wSfvabTkz_njAGNaBWXI-39" value="- -----" style="text;strokeColor=none;fillColor=none;align=left;verticalAlign=top;spacingLeft=4;spacingRight=4;overflow=hidden;rotatable=0;points=[[0,0.5],[1,0.5]];portConstraint=eastwest;whiteSpace=wrap;html=1;" parent="wSfvabTkz_njAGNaBWXI-34" vertex="1">
          <mxGeometry y="130" width="160" height="26" as="geometry" />
        </mxCell>
        <mxCell id="wSfvabTkz_njAGNaBWXI-40" value="- -----" style="text;strokeColor=none;fillColor=none;align=left;verticalAlign=top;spacingLeft=4;spacingRight=4;overflow=hidden;rotatable=0;points=[[0,0.5],[1,0.5]];portConstraint=eastwest;whiteSpace=wrap;html=1;" parent="wSfvabTkz_njAGNaBWXI-34" vertex="1">
          <mxGeometry y="156" width="160" height="26" as="geometry" />
        </mxCell>
        <mxCell id="wSfvabTkz_njAGNaBWXI-41" value="- -----" style="text;strokeColor=none;fillColor=none;align=left;verticalAlign=top;spacingLeft=4;spacingRight=4;overflow=hidden;rotatable=0;points=[[0,0.5],[1,0.5]];portConstraint=eastwest;whiteSpace=wrap;html=1;" parent="wSfvabTkz_njAGNaBWXI-34" vertex="1">
          <mxGeometry y="182" width="160" height="26" as="geometry" />
        </mxCell>
        <mxCell id="wSfvabTkz_njAGNaBWXI-42" value="" style="line;strokeWidth=1;fillColor=none;align=left;verticalAlign=middle;spacingTop=-1;spacingLeft=3;spacingRight=3;rotatable=0;labelPosition=right;points=[];portConstraint=eastwest;strokeColor=inherit;" parent="wSfvabTkz_njAGNaBWXI-34" vertex="1">
          <mxGeometry y="208" width="160" height="8" as="geometry" />
        </mxCell>
        <mxCell id="wSfvabTkz_njAGNaBWXI-43" value="use" style="edgeStyle=orthogonalEdgeStyle;rounded=0;orthogonalLoop=1;jettySize=auto;html=1;dashed=1;endArrow=open;endFill=0;" parent="1" source="wSfvabTkz_njAGNaBWXI-2" target="wSfvabTkz_njAGNaBWXI-34" edge="1">
          <mxGeometry x="0.4574" relative="1" as="geometry">
            <mxPoint x="490" y="706" as="sourcePoint" />
            <mxPoint x="490" y="784" as="targetPoint" />
            <mxPoint as="offset" />
          </mxGeometry>
        </mxCell>
        <mxCell id="wSfvabTkz_njAGNaBWXI-44" value="use" style="edgeStyle=orthogonalEdgeStyle;rounded=0;orthogonalLoop=1;jettySize=auto;html=1;dashed=1;endArrow=open;endFill=0;" parent="1" source="wSfvabTkz_njAGNaBWXI-2" target="wSfvabTkz_njAGNaBWXI-25" edge="1">
          <mxGeometry x="0.4574" relative="1" as="geometry">
            <mxPoint x="500" y="716" as="sourcePoint" />
            <mxPoint x="670" y="784" as="targetPoint" />
            <mxPoint as="offset" />
          </mxGeometry>
        </mxCell>
        <mxCell id="DpmKQaN_tZVzSyYiAJMI-1" value="LogScreen" style="swimlane;fontStyle=1;align=center;verticalAlign=top;childLayout=stackLayout;horizontal=1;startSize=26;horizontalStack=0;resizeParent=1;resizeParentMax=0;resizeLast=0;collapsible=1;marginBottom=0;whiteSpace=wrap;html=1;" parent="1" vertex="1">
          <mxGeometry x="-40" y="402" width="160" height="204" as="geometry" />
        </mxCell>
        <mxCell id="DpmKQaN_tZVzSyYiAJMI-2" value="&lt;div&gt;+ logScreen : Jframe&lt;br&gt;&lt;/div&gt;" style="text;strokeColor=none;fillColor=none;align=left;verticalAlign=top;spacingLeft=4;spacingRight=4;overflow=hidden;rotatable=0;points=[[0,0.5],[1,0.5]];portConstraint=eastwest;whiteSpace=wrap;html=1;" parent="DpmKQaN_tZVzSyYiAJMI-1" vertex="1">
          <mxGeometry y="26" width="160" height="26" as="geometry" />
        </mxCell>
        <mxCell id="DpmKQaN_tZVzSyYiAJMI-3" value="&lt;div&gt;&lt;br&gt;&lt;/div&gt;" style="text;strokeColor=none;fillColor=none;align=left;verticalAlign=top;spacingLeft=4;spacingRight=4;overflow=hidden;rotatable=0;points=[[0,0.5],[1,0.5]];portConstraint=eastwest;whiteSpace=wrap;html=1;" parent="DpmKQaN_tZVzSyYiAJMI-1" vertex="1">
          <mxGeometry y="52" width="160" height="26" as="geometry" />
        </mxCell>
        <mxCell id="DpmKQaN_tZVzSyYiAJMI-6" value="" style="line;strokeWidth=1;fillColor=none;align=left;verticalAlign=middle;spacingTop=-1;spacingLeft=3;spacingRight=3;rotatable=0;labelPosition=right;points=[];portConstraint=eastwest;strokeColor=inherit;" parent="DpmKQaN_tZVzSyYiAJMI-1" vertex="1">
          <mxGeometry y="78" width="160" height="8" as="geometry" />
        </mxCell>
        <mxCell id="DpmKQaN_tZVzSyYiAJMI-7" value="+ Constructor(String, String)" style="text;strokeColor=none;fillColor=none;align=left;verticalAlign=top;spacingLeft=4;spacingRight=4;overflow=hidden;rotatable=0;points=[[0,0.5],[1,0.5]];portConstraint=eastwest;whiteSpace=wrap;html=1;" parent="DpmKQaN_tZVzSyYiAJMI-1" vertex="1">
          <mxGeometry y="86" width="160" height="26" as="geometry" />
        </mxCell>
        <mxCell id="DpmKQaN_tZVzSyYiAJMI-8" value="+ setter" style="text;strokeColor=none;fillColor=none;align=left;verticalAlign=top;spacingLeft=4;spacingRight=4;overflow=hidden;rotatable=0;points=[[0,0.5],[1,0.5]];portConstraint=eastwest;whiteSpace=wrap;html=1;" parent="DpmKQaN_tZVzSyYiAJMI-1" vertex="1">
          <mxGeometry y="112" width="160" height="26" as="geometry" />
        </mxCell>
        <mxCell id="DpmKQaN_tZVzSyYiAJMI-9" value="+ getter" style="text;strokeColor=none;fillColor=none;align=left;verticalAlign=top;spacingLeft=4;spacingRight=4;overflow=hidden;rotatable=0;points=[[0,0.5],[1,0.5]];portConstraint=eastwest;whiteSpace=wrap;html=1;" parent="DpmKQaN_tZVzSyYiAJMI-1" vertex="1">
          <mxGeometry y="138" width="160" height="26" as="geometry" />
        </mxCell>
        <mxCell id="DpmKQaN_tZVzSyYiAJMI-10" value="Khởi tạo account bằng input (string&amp;nbsp;&lt;span style=&quot;background-color: initial;&quot;&gt;username&lt;/span&gt;&lt;div&gt;,&amp;nbsp;&lt;span style=&quot;background-color: initial;&quot;&gt;string password) Object account&amp;nbsp;&lt;/span&gt;&lt;span style=&quot;background-color: initial;&quot;&gt;khởi&amp;nbsp;&lt;/span&gt;&lt;/div&gt;&lt;div&gt;&lt;span style=&quot;background-color: initial;&quot;&gt;tạo&amp;nbsp;&lt;/span&gt;&lt;span style=&quot;background-color: initial;&quot;&gt;thành công &amp;lt;=&amp;gt; User được khởi tạo.&lt;/span&gt;&lt;/div&gt;" style="text;html=1;align=center;verticalAlign=middle;resizable=0;points=[];autosize=1;strokeColor=none;fillColor=none;horizontal=1;textOpacity=60;fontSize=8;" parent="DpmKQaN_tZVzSyYiAJMI-1" vertex="1">
          <mxGeometry y="164" width="160" height="40" as="geometry" />
        </mxCell>
        <mxCell id="DpmKQaN_tZVzSyYiAJMI-12" value="has" style="edgeStyle=orthogonalEdgeStyle;rounded=0;orthogonalLoop=1;jettySize=auto;html=1;dashed=1;endArrow=open;endFill=0;" parent="1" source="24fqjNdx8K8JyZ3R7jgm-52" target="DpmKQaN_tZVzSyYiAJMI-1" edge="1">
          <mxGeometry y="2" relative="1" as="geometry">
            <mxPoint x="495" y="164" as="sourcePoint" />
            <mxPoint x="610" y="357" as="targetPoint" />
            <mxPoint as="offset" />
          </mxGeometry>
        </mxCell>
        <mxCell id="DpmKQaN_tZVzSyYiAJMI-13" value="OptionWindow" style="swimlane;fontStyle=1;align=center;verticalAlign=top;childLayout=stackLayout;horizontal=1;startSize=26;horizontalStack=0;resizeParent=1;resizeParentMax=0;resizeLast=0;collapsible=1;marginBottom=0;whiteSpace=wrap;html=1;" parent="1" vertex="1">
          <mxGeometry x="-40" y="684" width="160" height="216" as="geometry" />
        </mxCell>
        <mxCell id="DpmKQaN_tZVzSyYiAJMI-14" value="- -----" style="text;strokeColor=none;fillColor=none;align=left;verticalAlign=top;spacingLeft=4;spacingRight=4;overflow=hidden;rotatable=0;points=[[0,0.5],[1,0.5]];portConstraint=eastwest;whiteSpace=wrap;html=1;" parent="DpmKQaN_tZVzSyYiAJMI-13" vertex="1">
          <mxGeometry y="26" width="160" height="26" as="geometry" />
        </mxCell>
        <mxCell id="DpmKQaN_tZVzSyYiAJMI-15" value="&lt;div&gt;- -----&lt;br&gt;&lt;/div&gt;" style="text;strokeColor=none;fillColor=none;align=left;verticalAlign=top;spacingLeft=4;spacingRight=4;overflow=hidden;rotatable=0;points=[[0,0.5],[1,0.5]];portConstraint=eastwest;whiteSpace=wrap;html=1;" parent="DpmKQaN_tZVzSyYiAJMI-13" vertex="1">
          <mxGeometry y="52" width="160" height="26" as="geometry" />
        </mxCell>
        <mxCell id="DpmKQaN_tZVzSyYiAJMI-16" value="&lt;div&gt;- -----&lt;br&gt;&lt;/div&gt;" style="text;strokeColor=none;fillColor=none;align=left;verticalAlign=top;spacingLeft=4;spacingRight=4;overflow=hidden;rotatable=0;points=[[0,0.5],[1,0.5]];portConstraint=eastwest;whiteSpace=wrap;html=1;" parent="DpmKQaN_tZVzSyYiAJMI-13" vertex="1">
          <mxGeometry y="78" width="160" height="26" as="geometry" />
        </mxCell>
        <mxCell id="DpmKQaN_tZVzSyYiAJMI-17" value="- -----" style="text;strokeColor=none;fillColor=none;align=left;verticalAlign=top;spacingLeft=4;spacingRight=4;overflow=hidden;rotatable=0;points=[[0,0.5],[1,0.5]];portConstraint=eastwest;whiteSpace=wrap;html=1;" parent="DpmKQaN_tZVzSyYiAJMI-13" vertex="1">
          <mxGeometry y="104" width="160" height="26" as="geometry" />
        </mxCell>
        <mxCell id="DpmKQaN_tZVzSyYiAJMI-18" value="- -----" style="text;strokeColor=none;fillColor=none;align=left;verticalAlign=top;spacingLeft=4;spacingRight=4;overflow=hidden;rotatable=0;points=[[0,0.5],[1,0.5]];portConstraint=eastwest;whiteSpace=wrap;html=1;" parent="DpmKQaN_tZVzSyYiAJMI-13" vertex="1">
          <mxGeometry y="130" width="160" height="26" as="geometry" />
        </mxCell>
        <mxCell id="DpmKQaN_tZVzSyYiAJMI-19" value="- -----" style="text;strokeColor=none;fillColor=none;align=left;verticalAlign=top;spacingLeft=4;spacingRight=4;overflow=hidden;rotatable=0;points=[[0,0.5],[1,0.5]];portConstraint=eastwest;whiteSpace=wrap;html=1;" parent="DpmKQaN_tZVzSyYiAJMI-13" vertex="1">
          <mxGeometry y="156" width="160" height="26" as="geometry" />
        </mxCell>
        <mxCell id="DpmKQaN_tZVzSyYiAJMI-20" value="- -----" style="text;strokeColor=none;fillColor=none;align=left;verticalAlign=top;spacingLeft=4;spacingRight=4;overflow=hidden;rotatable=0;points=[[0,0.5],[1,0.5]];portConstraint=eastwest;whiteSpace=wrap;html=1;" parent="DpmKQaN_tZVzSyYiAJMI-13" vertex="1">
          <mxGeometry y="182" width="160" height="26" as="geometry" />
        </mxCell>
        <mxCell id="DpmKQaN_tZVzSyYiAJMI-21" value="" style="line;strokeWidth=1;fillColor=none;align=left;verticalAlign=middle;spacingTop=-1;spacingLeft=3;spacingRight=3;rotatable=0;labelPosition=right;points=[];portConstraint=eastwest;strokeColor=inherit;" parent="DpmKQaN_tZVzSyYiAJMI-13" vertex="1">
          <mxGeometry y="208" width="160" height="8" as="geometry" />
        </mxCell>
        <mxCell id="DpmKQaN_tZVzSyYiAJMI-22" value="use" style="edgeStyle=orthogonalEdgeStyle;rounded=0;orthogonalLoop=1;jettySize=auto;html=1;dashed=1;endArrow=open;endFill=0;" parent="1" source="DpmKQaN_tZVzSyYiAJMI-1" target="DpmKQaN_tZVzSyYiAJMI-13" edge="1">
          <mxGeometry x="0.4574" relative="1" as="geometry">
            <mxPoint x="330" y="520" as="sourcePoint" />
            <mxPoint x="230" y="694" as="targetPoint" />
            <mxPoint as="offset" />
          </mxGeometry>
        </mxCell>
      </root>
    </mxGraphModel>
  </diagram>
</mxfile>
